#N canvas 21 122 659 479 10;
#X obj 8 20 noise~;
#X obj 9 252 dac~;
#X obj 8 41 hip~ 5000;
#X obj 8 62 hip~ 5000;
#X obj 8 83 lop~ 8000;
#X obj 8 104 lop~ 8000;
#X obj 25 130 sig~ 1;
#X obj 25 156 /~;
#X obj 74 130 +~ 1;
#X obj 74 108 *~;
#X obj 9 177 *~;
#X obj 9 222 *~ 0.7;
#X obj 9 200 hip~ 4000;
#X obj 75 62 osc~ 2;
#X obj 75 83 *~ 67;
#X obj 127 11 r CicadaSpeed @hv_param 1 128 20;
#X obj 183 61 r Granularity @hv_param 0 80 6;
#X connect 0 0 2 0;
#X connect 2 0 3 0;
#X connect 3 0 4 0;
#X connect 4 0 5 0;
#X connect 5 0 10 0;
#X connect 6 0 7 0;
#X connect 7 0 10 1;
#X connect 8 0 7 1;
#X connect 9 0 8 0;
#X connect 10 0 12 0;
#X connect 11 0 1 0;
#X connect 11 0 1 1;
#X connect 12 0 11 0;
#X connect 13 0 14 0;
#X connect 14 0 9 0;
#X connect 14 0 9 1;
#X connect 15 0 13 0;
#X connect 16 0 14 1;
