#N canvas 36 73 761 713 12;
#X obj 77 470 dac~;
#N canvas -25 28 703 800 water 1;
#X obj 95 305 pack 1 3;
#X obj 95 328 line~;
#X obj 95 363 osc~;
#X obj 166 554 clip~ 0 1;
#X obj 166 577 lop~ 10;
#X obj 127 661 *~;
#X obj 127 684 *~ 0.1;
#X obj 158 269 inlet;
#X obj 127 737 outlet~;
#N canvas 0 162 696 300 birand 1;
#X obj 54 27 inlet;
#X obj 54 50 t b;
#X obj 133 147 sel 0 1;
#X msg 133 181 -1;
#X msg 172 184 1;
#X obj 54 195 exp;
#X obj 54 218 *;
#X obj 54 264 outlet;
#X obj 54 73 random 9266;
#X obj 54 126 mod 4633;
#X obj 133 124 > 4633;
#X obj 54 149 / 4633;
#X obj 55 241 / 21000;
#X obj 54 172 * 9;
#X connect 0 0 1 0;
#X connect 1 0 8 0;
#X connect 2 0 3 0;
#X connect 2 1 4 0;
#X connect 3 0 6 1;
#X connect 4 0 6 1;
#X connect 5 0 6 0;
#X connect 6 0 12 0;
#X connect 8 0 9 0;
#X connect 8 0 10 0;
#X connect 9 0 11 0;
#X connect 10 0 2 0;
#X connect 11 0 13 0;
#X connect 12 0 7 0;
#X connect 13 0 5 0;
#X restore 94 189 pd birand;
#X obj 166 623 *~;
#X obj 166 600 *~ 2;
#X obj 95 257 + 745;
#X obj 94 212 * 1600;
#X obj 93 166 metro 16;
#X obj 200 123 inlet rate;
#X obj 297 133 inlet max;
#X obj 388 156 inlet min;
#X obj 172 494 -~;
#X msg 268 316 clear;
#X obj 73 90 inlet;
#X obj 241 368 delwrite~ del_line 2.08333e-05;
#X obj 246 418 delread~ del_line 2.08333e-05;
#X connect 0 0 1 0;
#X connect 1 0 2 0;
#X connect 1 0 18 0;
#X connect 1 0 21 0;
#X connect 2 0 5 0;
#X connect 3 0 4 0;
#X connect 4 0 11 0;
#X connect 5 0 6 0;
#X connect 6 0 8 0;
#X connect 7 0 0 1;
#X connect 9 0 13 0;
#X connect 10 0 5 1;
#X connect 11 0 10 0;
#X connect 11 0 10 1;
#X connect 12 0 0 0;
#X connect 13 0 12 0;
#X connect 14 0 9 0;
#X connect 15 0 14 1;
#X connect 16 0 13 1;
#X connect 17 0 12 1;
#X connect 18 0 3 0;
#X connect 19 0 21 0;
#X connect 20 0 14 0;
#X connect 22 0 18 1;
#X restore 66 299 pd water;
#X obj 324 125 r Rate @hv_param 5 25 16;
#X obj 353 156 r Max @hv_param 1000 3000 1600;
#X obj 348 201 r Min @hv_param 600 850 745;
#X obj 231 85 r Slew @hv_param 0 5 0.508;
#X obj 72 374 *~ 6;
#X obj 31 49 sig~ 1;
#X obj 40 175 bng 15 250 50 0 empty empty empty 17 7 0 10 -262144 -1
-1;
#X obj 31 75 env~ 163840 81920;
#X msg 81 221 0;
#X connect 1 0 6 0;
#X connect 2 0 1 2;
#X connect 3 0 1 3;
#X connect 4 0 1 4;
#X connect 5 0 1 1;
#X connect 6 0 0 0;
#X connect 6 0 0 1;
#X connect 7 0 9 0;
#X connect 8 0 10 0;
#X connect 8 0 1 0;
#X connect 9 0 8 0;
#X connect 10 0 1 0;
