#N canvas 0 35 965 666 12;
#X obj 38 30 noise~;
#X obj 176 380 dac~;
#X obj 161 233 +~;
#X obj 174 320 *~ 0.1;
#X obj 76 198 +~;
#X obj 47 160 *~ 0.12;
#X obj 174 275 +~;
#X obj 55 94 bp~ 75 0.54;
#X obj 197 156 lop~ 1568;
#X obj 69 118 *~ 8;
#X obj 197 182 lop~ 3000;
#X obj 324 90 *~ 0.43;
#X obj 310 66 bp~ 243 0.4;
#X obj 502 27 r Mids @hv_param 120 540 242;
#X obj 119 15 r Lows @hv_param 60 100 75;
#X obj 335 124 r Highs @hv_param 650 3000 1700;
#X connect 0 0 5 0;
#X connect 0 0 7 0;
#X connect 0 0 8 0;
#X connect 0 0 12 0;
#X connect 2 0 6 0;
#X connect 3 0 1 0;
#X connect 3 0 1 1;
#X connect 4 0 2 0;
#X connect 5 0 4 0;
#X connect 6 0 3 0;
#X connect 7 0 9 0;
#X connect 8 0 10 0;
#X connect 9 0 4 1;
#X connect 10 0 2 1;
#X connect 11 0 6 1;
#X connect 12 0 11 0;
#X connect 13 0 12 1;
#X connect 14 0 7 1;
#X connect 15 0 8 1;
